# xmcd
#
# Track frame offsets: 
#        150
#        14850
#        28055
#        43235
#        57740
#        73637
#        92047
#        110360
#        130105
#        148652
#        162070
#        179392
#
# Disc length: 2555 seconds
#
# Revision: 0
# Processed by: cddbd v1.5.2PL0 Copyright (c) Steve Scherf et al.
# Submitted via: ExactAudioCopy v0.95a5
#
DISCID=b009f90c
DTITLE=江蕙 - 懷念經典
DYEAR=1900
DGENRE=House
TTITLE0=淡水暮色
TTITLE1=漂亮你一人
TTITLE2=心情
TTITLE3=春花夢露
TTITLE4=無緣的酒
TTITLE5=杯中戀情
TTITLE6=紅顏
TTITLE7=新娘悲歌
TTITLE8=最愛的人
TTITLE9=深情難捨
TTITLE10=送出帆
TTITLE11=相思燈
EXTD=
EXTT0=
EXTT1=
EXTT2=
EXTT3=
EXTT4=
EXTT5=
EXTT6=
EXTT7=
EXTT8=
EXTT9=
EXTT10=
EXTT11=
PLAYORDER=
